<svg id="SvgjsSvg1000" xmlns="http://www.w3.org/2000/svg" version="1.1" xmlns:xlink="http://www.w3.org/1999/xlink" xmlns:svgjs="http://svgjs.com/svgjs" width="490" height="396"><defs id="SvgjsDefs1001"></defs><path id="SvgjsPath1007" d="M0 592L0 197L263 197L263 592Z " fill="#ffffff" fill-opacity="0" transform="matrix(1,0,0,1,226,-197)"></path><path id="SvgjsPath1008" d="M-65 212L-65 592L262.87 592Z " fill="#eff6ff" fill-opacity="1" transform="matrix(1,0,0,1,226,-197)"></path><path id="SvgjsPath1009" d="M98.49 347.39L98.49 325.61C98.24 321.1 89.83999999999999 316.7 89.83999999999999 316.7C87.57 315.24 87.66999999999999 309.78999999999996 87.66999999999999 309.78999999999996L87.29999999999998 290.68999999999994C87.77999999999999 290.50999999999993 87.69999999999999 290.00999999999993 87.69999999999999 290.00999999999993C87.69999999999999 290.00999999999993 87.69999999999999 289.30999999999995 87.69999999999999 288.47999999999996C87.69999999999999 287.65 87.38999999999999 287.61999999999995 87.38999999999999 287.61999999999995L87.38999999999999 286.91999999999996C87.25999999999999 285.98999999999995 85.93999999999998 285.99999999999994 85.93999999999998 285.99999999999994L77.45999999999998 285.99999999999994C77.45999999999998 285.99999999999994 76.13999999999999 285.98999999999995 76.00999999999998 286.91999999999996L76.00999999999998 287.61999999999995C76.00999999999998 287.61999999999995 75.68999999999998 287.6499999999999 75.68999999999998 288.47999999999996C75.68999999999998 289.30999999999995 75.68999999999998 290.00999999999993 75.68999999999998 290.00999999999993C75.68999999999998 290.00999999999993 75.60999999999999 290.49999999999994 76.09999999999998 290.68999999999994L75.71999999999998 309.78999999999996C75.71999999999998 309.78999999999996 75.81999999999998 315.23999999999995 73.55999999999999 316.7C73.55999999999999 316.7 66.30999999999999 320.3 66.05999999999999 324.82L65.99999999999999 382.8C65.99999999999999 382.8 67.22999999999999 386.42 71.51999999999998 386.66C74.49999999999999 386.75 74.45999999999998 386.73 79.91999999999999 386.67L79.96 374.15000000000003C79.96 374.15000000000003 79.05 374.13000000000005 78.57 374.14000000000004C76.07 374.20000000000005 70.63999999999999 373.44000000000005 70.63999999999999 373.44000000000005L70.64999999999999 342.62000000000006C70.64999999999999 342.62000000000006 76.28999999999999 343.93000000000006 81.8 344.0300000000001C87.8 344.1300000000001 93.92999999999999 342.62000000000006 93.92999999999999 342.62000000000006L93.92999999999999 349.5900000000001Z " fill="#007aff" fill-opacity="1" transform="matrix(1,0,0,1,226,-197)"></path><path id="SvgjsPath1010" d="M192.53 336.73C194.04 336.08000000000004 197.36 333.57 197.39000000000001 332.68C197.42000000000002 331.8 195.33 332.68 195.33 332.68C196.02 331.87 196.98000000000002 328.02 196.17000000000002 327.56C194.83 326.8 190.86 330.79 190.92000000000002 330.68C190.97000000000003 330.56 190.95000000000002 329.13 190.3 329.08C189.65 329.02 185.78 334.07 185.78 334.07C185.75 333.55 185.57 333.05 185.27 332.28C184.97 331.52 184.5 331.94 183.69 333.4C182.88 334.87 181.14 336.85999999999996 179.09 338.47999999999996C177.05 340.10999999999996 173.97 341.46 174 341.02C174.03 340.58 176.02 336.5 178.62 334.28C181.22 332.07 184.70000000000002 331.4 186.38 330.63C188.06 329.85 188.71 329.4 188.76 329C188.81 328.6 187.07 328.76 187.07 328.65C187.06 328.52 187.54999999999998 328.21999999999997 189.54 327.38C191.51999999999998 326.54 189.04999999999998 326.28 189.51 326.03C190.53 325.47999999999996 191.6 323.84999999999997 191.47 323.59C191.32 323.33 189.39 323.51 188.14 323.97999999999996C186.89 324.45 183.54 326.65 183.45 326.45C183.35999999999999 326.25 184.66 325.5 187.54 323.53999999999996C190.42999999999998 321.58 191.57 319.28999999999996 191.53 318.73999999999995C191.48 318.19999999999993 187.46 319.05999999999995 187.56 319.04999999999995C187.67000000000002 319.03999999999996 191.69 315.55999999999995 191.68 314.99999999999994C191.67000000000002 314.42999999999995 189.85 314.66999999999996 189.85 314.66999999999996C190.63 313.60999999999996 191.07999999999998 310.56999999999994 190.38 310.09C189.66 309.59999999999997 187.4 311.28 187.4 311.28C187.4 311.28 187.26000000000002 310.59999999999997 186.79 310.60999999999996C186.32999999999998 310.61999999999995 184.94 313.43999999999994 184.94 313.43999999999994C184.94 313.43999999999994 184.88 313.09999999999997 184.54 312.2699999999999C184.19 311.43999999999994 183.92999999999998 311.42999999999995 183.09 312.1599999999999C182.24 312.8999999999999 181.04 316.3699999999999 181.04 316.3699999999999C181 315.6199999999999 181.01999999999998 312.9799999999999 179.67999999999998 312.7999999999999C178.33999999999997 312.6199999999999 176.48999999999998 316.3699999999999 175.79999999999998 319.4599999999999C175.1 322.5399999999999 175.04999999999998 321.55999999999995 174.83999999999997 319.0199999999999C174.64 316.4799999999999 173.67 315.0799999999999 173.07999999999998 315.05999999999995C172.49999999999997 315.03999999999996 172.23999999999998 315.9599999999999 171.89999999999998 317.10999999999996C171.67999999999998 317.86999999999995 171.76999999999998 318.13999999999993 171.26 317.38999999999993C170.37 316.05999999999995 169.78 316.79999999999995 169.88 317.7699999999999C169.99 318.73999999999995 170.47 321.05999999999995 170.47 321.05999999999995C170.47 321.05999999999995 169.94 319.8999999999999 168.84 319.04999999999995C167.75 318.19999999999993 167.12 318.84 167.28 320.40999999999997C167.44 321.97999999999996 168.09 328.34999999999997 168.18 331.18999999999994C168.25 334.0299999999999 166.65 339.2199999999999 166.65 339.2199999999999C166.03 335.2499999999999 162.71 326.0299999999999 161.8 325.94999999999993C160.9 325.87999999999994 160.65 327.55999999999995 160.65 327.55999999999995C160.38 326.40999999999997 159.76000000000002 324.74999999999994 159.18 324.56999999999994C158.87 324.47999999999996 158.23000000000002 325.2199999999999 158.23000000000002 325.2199999999999C157.51000000000002 324.4799999999999 156.03000000000003 323.13999999999993 155.26000000000002 323.5399999999999C154.49 323.9399999999999 154.8 325.8699999999999 154.8 325.8699999999999C153.71 325.4699999999999 153.55 325.7399999999999 153.96 326.5499999999999C154.38 327.3699999999999 155.64000000000001 328.8099999999999 155.64000000000001 328.8099999999999C155.64000000000001 328.8099999999999 155.46 328.6399999999999 154.51000000000002 328.3199999999999C153.56000000000003 327.9999999999999 153.15 327.6399999999999 153.39000000000001 328.6799999999999C153.62 329.7399999999999 155.70000000000002 333.01999999999987 155.70000000000002 333.01999999999987C155.70000000000002 333.01999999999987 154.49 331.9499999999999 153.05 331.1799999999999C151.61 330.4199999999999 150.09 329.8199999999999 149.64000000000001 330.4299999999999C149.19000000000003 331.0399999999999 150.38000000000002 333.6599999999999 150.38000000000002 333.6599999999999L149.11 333.81999999999994C149.11 333.81999999999994 148.36 333.8399999999999 150.81 335.8499999999999C151.51 336.4199999999999 152.4 337.0799999999999 152.79 337.3599999999999C152.59 337.3299999999999 152.20999999999998 337.3299999999999 151.5 337.3899999999999C149.28 337.58999999999986 149.52 338.6199999999999 151.89 339.4499999999999C154.13 340.20999999999987 156.10999999999999 340.7999999999999 157.98999999999998 341.65999999999985C159.85999999999999 342.52999999999986 160.42999999999998 342.9399999999998 162.55999999999997 345.23999999999984C164.78999999999996 347.65999999999985 166.54999999999998 350.42999999999984 165.14999999999998 353.67999999999984C164.03999999999996 356.2599999999998 163.17 356.48999999999984 163.17 356.48999999999984C161.55999999999997 358.08999999999986 158.30999999999997 358.08999999999986 158.30999999999997 358.08999999999986L157.56999999999996 360.46999999999986C157.56999999999996 360.46999999999986 160.20999999999995 361.08999999999986 161.81999999999996 360.1899999999999C164.03999999999996 358.9499999999999 167.11999999999998 357.9499999999999 167.86999999999998 353.1199999999999C168.79999999999998 347.0499999999999 177.65999999999997 347.6299999999999 182.99999999999997 347.4699999999999C188.33999999999997 347.3099999999999 190.25999999999996 346.7299999999999 190.29999999999998 346.2299999999999C190.33999999999997 345.7399999999999 190.05999999999997 345.3499999999999 190.05999999999997 345.3499999999999C190.95999999999998 344.9799999999999 192.83999999999997 344.1499999999999 192.76999999999998 342.8299999999999C192.7 341.50999999999993 185.74999999999997 342.7199999999999 185.74999999999997 342.7199999999999C186.10999999999999 342.56999999999994 189.20999999999998 341.7299999999999 192.22999999999996 340.4699999999999C195.24999999999997 339.2199999999999 196.56999999999996 337.93999999999994 196.54999999999995 336.8599999999999C196.46999999999994 335.8299999999999 192.52999999999994 336.7299999999999 192.52999999999994 336.7299999999999Z " fill="#007aff" fill-opacity="1" transform="matrix(1,0,0,1,226,-197)"></path><path id="SvgjsPath1011" d="M249.77 352.79C250.32000000000002 355.11 249.84 357.59000000000003 248.5 359.41C246.31 362.38000000000005 242.24 363.84000000000003 238.14 363.14000000000004C235.73 362.73 233.72 361.90000000000003 232.54 361.32000000000005C230.72 361.96000000000004 226.76999999999998 363.50000000000006 223.07999999999998 365.97C218.11999999999998 369.3 212.54999999999998 377.06 212.49999999999997 377.14000000000004C212.02999999999997 377.79 211.23999999999998 377.38000000000005 210.37999999999997 377.38000000000005L163.28999999999996 377.38000000000005C161.91999999999996 377.38000000000005 160.79999999999995 377.18000000000006 160.76999999999995 375.93000000000006C160.75999999999996 375.4800000000001 160.55999999999995 364.8500000000001 167.35999999999996 357.1500000000001C171.65999999999997 352.2800000000001 177.78999999999996 349.6200000000001 185.58999999999995 349.2700000000001C190.66999999999996 349.0400000000001 195.35999999999996 350.1700000000001 199.49999999999994 351.1800000000001C202.52999999999994 351.92000000000013 205.38999999999993 352.6100000000001 207.98999999999995 352.6800000000001C212.33999999999995 352.8000000000001 221.18999999999994 349.1900000000001 225.82999999999996 347.0800000000001C225.62999999999997 345.4500000000001 225.66999999999996 343.0700000000001 226.98999999999995 341.0300000000001C229.17999999999995 337.6500000000001 233.34999999999997 336.2100000000001 237.35999999999996 337.43000000000006C242.31999999999996 338.95000000000005 243.41999999999996 343.37000000000006 243.25999999999996 346.7300000000001C244.13999999999996 346.9100000000001 245.04999999999995 347.2200000000001 245.92999999999995 347.7100000000001C247.88999999999996 348.80000000000007 249.24999999999994 350.6000000000001 249.76999999999995 352.7900000000001ZM214.7 382.03C216.08999999999997 382.03 217.44 383.46 217.44 384.73999999999995C217.44 386.00999999999993 216.31 387.03999999999996 214.92 387.03999999999996L84.53 387.03999999999996C83.13 387.03999999999996 82 386.02 82 384.73999999999995C82 383.46 82.91 382.03 84.3 382.03ZM187.74 358.87C189.15 358.98 190.36 358.04 190.49 356.77C190.61 355.49 189.58 354.37 188.19 354.26C177.23 353.37 171.73 359.78999999999996 170.36 363.32C169.89000000000001 364.52 170.57000000000002 365.84 171.88000000000002 366.27C172.16000000000003 366.37 172.44000000000003 366.40999999999997 172.73000000000002 366.40999999999997C173.76000000000002 366.40999999999997 174.73000000000002 365.83 175.10000000000002 364.89C175.13000000000002 364.82 177.86 358.08 187.74 358.87ZM246.4 358.57C247.47 357.23 247.51000000000002 354.87 247.25 353.78C247.09 353.11999999999995 246.51 351.40999999999997 244.8 350.40999999999997C243.49 349.63 240.36 349.53 239.91000000000003 349.61999999999995C238.54000000000002 349.87999999999994 236.84000000000003 350.6499999999999 236.55 349.3999999999999C236.28 348.2399999999999 239.53 347.2899999999999 240.73000000000002 346.9199999999999C240.86 345.3299999999999 239.42000000000002 339.5599999999999 233.8 339.9999999999999C231.60000000000002 340.1799999999999 230.14000000000001 341.3199999999999 229.37 342.4899999999999C228.47 343.8899999999999 228.94 345.3699999999999 229.11 345.9299999999999C229.45000000000002 346.9799999999999 228.92000000000002 348.0999999999999 227.87 348.6099999999999C226.21 349.3999999999999 225.27 349.8399999999999 222.8 350.8699999999999C222.8 350.8699999999999 222.31 354.26999999999987 223.66000000000003 356.9299999999999C224.88000000000002 359.3599999999999 227.82000000000002 360.1399999999999 227.82000000000002 360.1399999999999C230.12000000000003 359.1799999999999 231.85000000000002 358.27999999999986 231.97000000000003 358.2399999999999C232.72000000000003 358.0099999999999 233.29000000000002 357.4999999999999 233.93000000000004 357.8999999999999C233.94000000000003 357.9099999999999 236.18000000000004 360.11999999999995 238.94000000000003 360.5899999999999C241.06000000000003 360.94999999999993 244.44000000000003 361.0399999999999 246.40000000000003 358.56999999999994Z " fill="#007aff" fill-opacity="1" transform="matrix(1,0,0,1,226,-197)"></path><path id="SvgjsPath1012" d="M86.19 355.21L156.36 347.25L155.23000000000002 358.96C154.82000000000002 358.84 154.38000000000002 358.76 153.92000000000002 358.71999999999997C150.35000000000002 358.42999999999995 147.21 360.98999999999995 146.88000000000002 364.41999999999996C146.54000000000002 367.84999999999997 149.16000000000003 370.86999999999995 152.72000000000003 371.15999999999997C153.18000000000004 371.18999999999994 153.61 371.18999999999994 154.05000000000004 371.13L153.43000000000004 377.21L127.21000000000004 377.15C126.40000000000003 375.14 124.75000000000004 371.71999999999997 121.17000000000003 371.44C117.20000000000003 371.12 113.41000000000003 375.1 112.60000000000002 377.32L86.34000000000002 377.34L86.35000000000002 370.04999999999995C86.66000000000003 370.12999999999994 87.86000000000003 370.18999999999994 88.20000000000002 370.21999999999997C90.92000000000002 370.44 91.78000000000002 368.48999999999995 92.03000000000002 365.85999999999996C92.29000000000002 363.23999999999995 90.29000000000002 360.92999999999995 87.57000000000002 360.71999999999997C87.03000000000002 360.67999999999995 86.50000000000003 360.72999999999996 86.00000000000003 360.84ZM106.59 351.5C83.57000000000001 354.23 86.34 353.67 86.34 353.67L128.38 333C128.38 333 146.92 334.49 156.51999999999998 345.7C153.17 346.17 116.03999999999999 350.34999999999997 111.45999999999998 350.90999999999997C113.74999999999999 349.96999999999997 115.14999999999998 348.36999999999995 114.66999999999997 347.16999999999996C114.13999999999997 345.85999999999996 111.55999999999997 345.50999999999993 108.89999999999998 346.39C106.23999999999998 347.28999999999996 104.48999999999998 349.07 105.01999999999998 350.39C105.23999999999998 350.94 105.80999999999999 351.31 106.58999999999997 351.5ZM133.03 360.43C130.3 360.43 125.53 361.47 125.53 366.83C125.53 369.46 128.47 373.08 132.22 373.08C135.8 373.08 139.06 370.84999999999997 139.55 367.13C139.9 364.52 137.43 360.43 133.03 360.43ZM131.73 334.98C129.07 335.87 129.25 338.44 130.35 339.42C131.85999999999999 340.75 135.15 342.72 138.9 341.53000000000003C143.68 340.02000000000004 142.16 337.81 140 336.20000000000005C138.81 335.32000000000005 134.4 334.1 131.73 334.98ZM105.53 355.16C102.81 354.94 100.41 356.89000000000004 100.15 359.51000000000005C99.9 362.13000000000005 101.9 364.44000000000005 104.62 364.65000000000003C107.34 364.88000000000005 109.74000000000001 362.92 109.99000000000001 360.3C110.25000000000001 357.68 108.25000000000001 355.37 105.53000000000002 355.16Z " fill="#007aff" fill-opacity="1" transform="matrix(1,0,0,1,226,-197)"></path><path id="SvgjsPath1013" d="M-226 389L-226 453.09000000000003L-217.84 453.09000000000003L-217.84 592.9100000000001L-177.06 592.9100000000001L-177.06 453.0900000000001L-168.9 453.0900000000001L-168.9 423.9600000000001L-120.11000000000001 423.9600000000001C-104.54000000000002 429.3100000000001 -87.49000000000001 435.2100000000001 -70.44000000000001 441.0300000000001C-11.300000000000011 461.37000000000006 51.90999999999998 483.0400000000001 51.90999999999998 483.0400000000001L181.90999999999997 423.9600000000001L206.29999999999995 423.9600000000001L206.29999999999995 453.0900000000001L214.45999999999995 453.0900000000001L214.45999999999995 592.9100000000001L255.23999999999995 592.9100000000001L255.23999999999995 453.0900000000001L263.4 453.0900000000001L263.4 389.0000000000001ZM50.77 469.75C50.77 469.75 -99.16 418.31 -150.14 400.65L-103.24999999999999 400.65C-35.53999999999999 423.96 51.81000000000002 453.90999999999997 51.81000000000002 453.90999999999997L169.04000000000002 400.65L202.73000000000002 400.65L163.10000000000002 418.65999999999997L151.50000000000003 423.96ZM138.68 400.65L50.74000000000001 440.60999999999996C50.74000000000001 440.60999999999996 -14.999999999999986 418.06999999999994 -65.64999999999999 400.65ZM-193.37 581.26L-201.53 581.26L-201.53 453.09000000000003L-193.37 453.09000000000003ZM238.93 581.26L230.77 581.26L230.77 453.09000000000003L238.93 453.09000000000003ZM-209.69 412.3L-209.69 400.65000000000003L-186.51999999999998 400.65000000000003C-181.14 402.88000000000005 -171.35 406.24 -153.89 412.3ZM-185.22 441.43L-209.69 441.43L-209.69 423.96000000000004L-185.22 423.96000000000004ZM247.09 441.43L222.62 441.43L222.62 423.96000000000004L247.09 423.96000000000004ZM207.53 412.3L219.92000000000002 406.66L233.14000000000001 400.65000000000003L247.09 400.65000000000003L247.09 412.3Z " fill="#007aff" fill-opacity="1" transform="matrix(1,0,0,1,226,-197)"></path></svg>