<svg id="SvgjsSvg1014" xmlns="http://www.w3.org/2000/svg" version="1.1" xmlns:xlink="http://www.w3.org/1999/xlink" xmlns:svgjs="http://svgjs.com/svgjs" width="380" height="401"><defs id="SvgjsDefs1015"></defs><path id="SvgjsPath1016" d="M1177 592L1177 197L1440 197L1440 592Z " fill="#ffffff" fill-opacity="0" transform="matrix(1,0,0,1,-1176,-197)"></path><path id="SvgjsPath1017" d="M1453.14 276L1453.14 597.2L1176 597.2Z " fill="#eff6ff" fill-opacity="1" transform="matrix(1,0,0,1,-1176,-197)"></path><path id="SvgjsPath1018" d="M1555.91 293.82C1555.91 293.27 1555.8700000000001 292.68 1555.74 292.13L1555.69 291.95L1547.3400000000001 250.02999999999997C1546.5500000000002 246.08999999999997 1543.0900000000001 243.25999999999996 1539.1100000000001 243.25999999999996L1203.0100000000002 243.25999999999996C1199.3100000000002 243.25999999999996 1196.0300000000002 245.68999999999997 1194.9300000000003 249.27999999999997L1182.3700000000003 291.29999999999995L1182.3300000000004 291.37999999999994C1182.0900000000004 292.16999999999996 1182.0000000000005 292.97999999999996 1182.0000000000005 293.7699999999999C1182.0000000000005 305.80999999999995 1186.8300000000004 316.69999999999993 1194.6000000000004 324.6599999999999L1194.6000000000004 564.93C1194.6000000000004 569.56 1198.3900000000003 573.3499999999999 1203.0100000000004 573.3499999999999C1207.6200000000003 573.3499999999999 1211.4100000000005 569.56 1211.4100000000005 564.93L1211.4100000000005 335.44999999999993C1215.9800000000005 337.0899999999999 1220.9500000000005 337.9699999999999 1226.1100000000006 337.9699999999999C1240.8200000000006 337.9699999999999 1253.8400000000006 330.7399999999999 1261.8200000000006 319.6599999999999C1269.8100000000006 330.7399999999999 1282.8300000000006 337.9699999999999 1297.5300000000007 337.9699999999999C1312.2400000000007 337.9699999999999 1325.2600000000007 330.7399999999999 1333.2500000000007 319.6599999999999C1341.2300000000007 330.7399999999999 1354.2500000000007 337.9699999999999 1368.9600000000007 337.9699999999999C1383.6600000000008 337.9699999999999 1396.6800000000007 330.7399999999999 1404.6700000000008 319.6599999999999C1412.6500000000008 330.7399999999999 1425.6700000000008 337.9699999999999 1440.3800000000008 337.9699999999999C1455.0800000000008 337.9699999999999 1468.1000000000008 330.7399999999999 1476.0900000000008 319.6599999999999C1484.0800000000008 330.7399999999999 1497.0900000000008 337.9699999999999 1511.8000000000009 337.9699999999999C1518.5600000000009 337.9699999999999 1524.990000000001 336.44999999999993 1530.700000000001 333.6699999999999L1530.700000000001 564.9299999999998C1530.700000000001 569.5599999999998 1534.490000000001 573.3499999999998 1539.110000000001 573.3499999999998C1543.720000000001 573.3499999999998 1547.5100000000011 569.5599999999998 1547.5100000000011 564.9299999999998L1547.5100000000011 321.61999999999983C1547.5100000000011 321.0199999999998 1547.4600000000012 320.47999999999985 1547.340000000001 319.92999999999984C1547.340000000001 319.89999999999986 1547.340000000001 319.89999999999986 1547.340000000001 319.89999999999986C1552.7200000000012 312.57999999999987 1555.910000000001 303.5699999999999 1555.910000000001 293.8199999999999ZM1505.5 564.05C1510.14 564.05 1513.9 560.28 1513.9 555.63L1513.9 378.84000000000003C1513.9 374.19000000000005 1510.14 370.42 1505.5 370.42L1354.25 370.42C1349.61 370.42 1345.85 374.19 1345.85 378.84000000000003L1345.85 555.63C1345.85 560.28 1349.61 564.05 1354.25 564.05ZM1362.65 387.25L1497.0900000000001 387.25L1497.0900000000001 547.22L1362.65 547.22ZM1484.49 293.77C1484.49 289.15 1480.7 285.34999999999997 1476.09 285.34999999999997C1471.47 285.34999999999997 1467.6899999999998 289.15 1467.6899999999998 293.77C1467.6899999999998 308.84 1455.4099999999999 321.13 1440.3799999999999 321.13C1425.34 321.13 1413.07 308.84 1413.07 293.77C1413.07 289.15 1409.28 285.34999999999997 1404.6699999999998 285.34999999999997C1400.05 285.34999999999997 1396.2599999999998 289.15 1396.2599999999998 293.77C1396.2599999999998 308.84 1383.9899999999998 321.13 1368.9599999999998 321.13C1353.9199999999998 321.13 1341.6499999999999 308.84 1341.6499999999999 293.77C1341.6499999999999 289.15 1337.86 285.34999999999997 1333.2499999999998 285.34999999999997C1328.6299999999999 285.34999999999997 1324.8399999999997 289.15 1324.8399999999997 293.77C1324.8399999999997 308.84 1312.5699999999997 321.13 1297.5299999999997 321.13C1282.4999999999998 321.13 1270.2299999999998 308.84 1270.2299999999998 293.77C1270.2299999999998 289.15 1266.4399999999998 285.34999999999997 1261.8199999999997 285.34999999999997C1257.2099999999998 285.34999999999997 1253.4199999999996 289.15 1253.4199999999996 293.77C1253.4199999999996 308.84 1241.1499999999996 321.13 1226.1099999999997 321.13C1211.4499999999996 321.13 1199.3899999999996 309.42 1198.8499999999997 294.87L1209.2599999999998 260.09000000000003L1532.2199999999998 260.09000000000003L1539.0599999999997 294.45000000000005C1538.7399999999998 309.23 1526.6299999999997 321.13000000000005 1511.7999999999997 321.13000000000005C1496.7599999999998 321.13000000000005 1484.4899999999998 308.84000000000003 1484.4899999999998 293.77000000000004ZM1320.64 564.05C1325.2800000000002 564.05 1329.0400000000002 560.28 1329.0400000000002 555.63L1329.0400000000002 378.84000000000003C1329.0400000000002 374.19000000000005 1325.2800000000002 370.42 1320.64 370.42L1236.6200000000001 370.42C1231.98 370.42 1228.21 374.19 1228.21 378.84000000000003L1228.21 555.63C1228.21 560.28 1231.98 564.05 1236.6200000000001 564.05ZM1245.02 387.25L1312.24 387.25L1312.24 547.22L1245.02 547.22ZM1547.51 596.85C1552.15 596.85 1555.91 593.08 1555.91 588.4300000000001C1555.91 583.7900000000001 1552.15 580.0200000000001 1547.51 580.0200000000001L1190.4 580.0200000000001C1185.76 580.0200000000001 1182 583.7900000000001 1182 588.4300000000001C1182 593.08 1185.76 596.85 1190.4 596.85ZM1530.7 234.84C1535.3400000000001 234.84 1539.1100000000001 231.07 1539.1100000000001 226.42000000000002C1539.1100000000001 221.77 1535.3400000000001 218.00000000000003 1530.7 218.00000000000003L1211.41 218.00000000000003C1206.77 218.00000000000003 1203.01 221.77000000000004 1203.01 226.42000000000002C1203.01 231.07000000000002 1206.77 234.84 1211.41 234.84ZM1404.82 486C1406.99 486 1409.1299999999999 485.19 1410.77 483.53L1431.45 462.80999999999995C1434.73 459.5199999999999 1434.73 454.18999999999994 1431.45 450.8999999999999C1428.17 447.6099999999999 1422.8500000000001 447.6099999999999 1419.57 450.8999999999999L1398.8899999999999 471.6199999999999C1395.61 474.9099999999999 1395.61 480.2399999999999 1398.8899999999999 483.5299999999999C1400.53 485.18999999999994 1402.6799999999998 485.99999999999994 1404.82 485.99999999999994ZM1300.68 475.65C1300.68 471.01 1296.92 467.23999999999995 1292.28 467.23999999999995C1287.6399999999999 467.23999999999995 1283.8799999999999 471.00999999999993 1283.8799999999999 475.65C1283.8799999999999 480.29999999999995 1287.6399999999999 484.07 1292.28 484.07C1296.92 484.07 1300.68 480.3 1300.68 475.65ZM1428.3 483.53C1425.02 480.23999999999995 1425.02 474.90999999999997 1428.3 471.61999999999995L1448.98 450.9C1452.26 447.60999999999996 1457.57 447.60999999999996 1460.8600000000001 450.9C1464.14 454.19 1464.14 459.52 1460.8600000000001 462.81L1440.18 483.53C1438.54 485.19 1436.39 486 1434.23 486C1432.09 486 1429.94 485.19 1428.3 483.53Z " fill="#007aff" fill-opacity="1" transform="matrix(1,0,0,1,-1176,-197)"></path></svg>